<svg width="17" height="13" viewBox="0 0 17 13" fill="none" xmlns="http://www.w3.org/2000/svg">
<path d="M16.9975 11.2654C16.9962 11.2285 16.9949 11.1914 16.9936 11.1541C16.9923 11.1169 16.9909 11.0795 16.9895 11.042L16.9885 11.0139L16.9879 10.9998L16.9878 10.9963L16.9874 10.9648L16.9873 10.9633L16.9869 10.9575L16.9833 10.9108C16.9784 10.8485 16.9736 10.786 16.9687 10.7235L16.965 10.6762L16.9594 10.6148C16.9556 10.574 16.9517 10.5332 16.9479 10.4925C16.9439 10.4518 16.9399 10.4112 16.9359 10.3708C16.9338 10.3506 16.9318 10.3304 16.9298 10.3103C16.9273 10.2917 16.9248 10.2731 16.9224 10.2545C16.902 10.107 16.8838 9.96204 16.8578 9.82269C16.8455 9.75297 16.8342 9.68442 16.8215 9.6176C16.8075 9.55094 16.7939 9.48577 16.7807 9.42229C16.7556 9.29528 16.7241 9.17665 16.6976 9.06699C16.6908 9.03963 16.6841 9.01279 16.6776 8.98661C16.6704 8.96054 16.6633 8.93513 16.6564 8.91031C16.6424 8.86081 16.6291 8.81383 16.6167 8.76974C16.6039 8.7257 16.5927 8.68436 16.581 8.64646C16.569 8.60869 16.5579 8.57397 16.5479 8.54262C16.5331 8.49656 16.5206 8.45776 16.5107 8.42711C16.4961 8.38185 16.4483 8.35641 16.4026 8.36943L13.5285 9.1885C13.4847 9.20097 13.4576 9.2446 13.4659 9.28937C13.469 9.30609 13.4726 9.32523 13.4765 9.34665C13.4806 9.36822 13.4852 9.39212 13.4901 9.41813C13.4948 9.4442 13.4985 9.47276 13.5032 9.50295C13.5078 9.53317 13.5127 9.56536 13.5179 9.59927C13.5204 9.61622 13.5234 9.63349 13.5257 9.65135C13.5278 9.66924 13.5298 9.68758 13.532 9.70629C13.54 9.78116 13.5519 9.86143 13.5573 9.94751C13.5608 9.99033 13.5644 10.0343 13.5682 10.0792C13.571 10.1243 13.5724 10.1705 13.5748 10.2172C13.581 10.3105 13.5798 10.4076 13.5816 10.5056L13.582 10.542L13.5807 10.5743C13.58 10.5959 13.5792 10.6174 13.5785 10.6391C13.5779 10.6606 13.5773 10.6822 13.5767 10.7038L13.5761 10.7362L13.5741 10.7827C13.5714 10.8454 13.5687 10.908 13.5661 10.9704L13.5641 11.0172L13.5638 11.023L13.5638 11.0245C13.5638 11.0315 13.5632 10.9688 13.5634 10.9959L13.5632 10.9982L13.5623 11.0074L13.5606 11.0259C13.5584 11.0504 13.5562 11.0749 13.554 11.0993C13.5518 11.1236 13.5497 11.1479 13.5476 11.172C13.5448 11.196 13.5419 11.2199 13.5391 11.2436C13.5329 11.291 13.5292 11.338 13.5216 11.3838C13.515 11.4296 13.5085 11.4745 13.5021 11.5186C13.4945 11.5624 13.4871 11.6052 13.4798 11.6468C13.4733 11.6885 13.4645 11.7287 13.4567 11.7676C13.4486 11.8064 13.4421 11.844 13.4336 11.8798C13.4254 11.9155 13.4174 11.9497 13.4099 11.9823C13.4062 11.9984 13.4026 12.014 13.3991 12.0293C13.3954 12.0424 13.392 12.055 13.3885 12.0673C13.3865 12.0748 13.3846 12.0819 13.3827 12.0892H16.8979C16.945 12.0892 16.9842 12.0522 16.986 12.0051C16.986 12.0048 16.986 12.0046 16.986 12.0043C16.989 11.9388 16.992 11.8716 16.995 11.8029C16.9964 11.7342 16.9977 11.6641 16.9991 11.5928C17.0011 11.5215 16.9989 11.4491 16.9987 11.3759C16.9983 11.3393 16.9979 11.3025 16.9975 11.2654Z" fill="white" fill-opacity="0.7"/>
<path d="M16.0836 7.57599C16.1308 7.55701 16.1523 7.50239 16.1306 7.45645C16.1209 7.43604 16.1096 7.41217 16.0968 7.38516C16.0847 7.35979 16.0714 7.33169 16.0569 7.30111C16.0381 7.26287 16.0178 7.22153 15.9961 7.17735C15.9743 7.13335 15.951 7.08652 15.9265 7.03716C15.914 7.0115 15.9018 6.99033 15.889 6.96625C15.8763 6.9427 15.8632 6.91861 15.8499 6.89401C15.8231 6.8449 15.7957 6.79356 15.7663 6.74099C15.7359 6.68899 15.7045 6.6352 15.6723 6.5799C15.6561 6.55233 15.6397 6.52436 15.6231 6.49608C15.6057 6.46824 15.5881 6.44005 15.5704 6.41157C15.5346 6.35482 15.4981 6.29682 15.461 6.23788C15.3827 6.12246 15.3047 6.00174 15.2177 5.88426C15.1963 5.85468 15.1748 5.82499 15.1533 5.79522L15.1209 5.75059L15.0872 5.70669C15.0421 5.6483 14.9968 5.58972 14.9515 5.53111C14.9055 5.47318 14.8578 5.41648 14.8111 5.35955C14.7874 5.33128 14.7646 5.30259 14.7404 5.27497C14.7163 5.24743 14.6922 5.21996 14.6682 5.1926C14.6441 5.16534 14.6202 5.13814 14.5964 5.1111C14.5727 5.08396 14.5488 5.05728 14.5242 5.03147C14.4755 4.97956 14.4273 4.92829 14.38 4.87785C14.3326 4.82756 14.2835 4.7803 14.2367 4.73306C14.1897 4.68607 14.1439 4.63992 14.0972 4.59706C14.051 4.55383 14.0061 4.51177 13.9626 4.47108C13.9194 4.4303 13.8752 4.39326 13.834 4.35657C13.7925 4.32028 13.7528 4.28551 13.7149 4.25244C13.6761 4.22047 13.6393 4.19015 13.6047 4.16166C13.5701 4.13328 13.5378 4.10673 13.5078 4.08218C13.4778 4.05771 13.4491 4.03651 13.4239 4.01674C13.387 3.98848 13.3559 3.96461 13.3312 3.94564C13.2936 3.91672 13.2399 3.9229 13.2096 3.95953L11.667 5.82677C11.6379 5.86198 11.6404 5.91345 11.6728 5.94559C11.6857 5.95833 11.7006 5.97307 11.7174 5.98966C11.7334 6.00578 11.7518 6.02286 11.7707 6.04279C11.7895 6.06271 11.8099 6.08427 11.8317 6.10728C11.8535 6.13019 11.8767 6.15456 11.9011 6.18026C11.9247 6.20678 11.9495 6.23471 11.9753 6.26383C12.0009 6.29321 12.0288 6.32238 12.0553 6.35491C12.0821 6.38712 12.1098 6.42041 12.1383 6.45464C12.1673 6.48824 12.195 6.52473 12.2236 6.56159C12.252 6.59871 12.2823 6.6353 12.3108 6.67455C12.3393 6.71366 12.3683 6.75343 12.3976 6.79369C12.4126 6.8135 12.4268 6.83417 12.4407 6.85514C12.4549 6.87597 12.4691 6.89687 12.4834 6.91788C12.4976 6.93878 12.512 6.95979 12.5264 6.98087C12.5407 7.00195 12.5539 7.02399 12.5677 7.04556C12.595 7.08908 12.6232 7.13195 12.65 7.17578C12.6761 7.22003 12.7022 7.2643 12.7282 7.30838L12.7477 7.34127L12.7659 7.37485C12.7782 7.39715 12.7903 7.41941 12.8024 7.44155C12.8524 7.52904 12.8946 7.61924 12.9388 7.70399C12.959 7.74744 12.9789 7.79014 12.9984 7.83198C13.0081 7.8528 13.0178 7.87342 13.0273 7.89377C13.0361 7.91449 13.0448 7.93494 13.0534 7.95514C13.0707 7.99534 13.0874 8.03449 13.1037 8.0723C13.1187 8.11065 13.1332 8.14769 13.1471 8.18323C13.1541 8.20098 13.1609 8.21836 13.1676 8.23534C13.1739 8.25191 13.1817 8.26984 13.1859 8.28364C13.1958 8.31261 13.2052 8.34011 13.214 8.36595C13.223 8.39161 13.2315 8.41561 13.2393 8.43782C13.2496 8.46844 13.259 8.49649 13.2675 8.52187C13.2769 8.55021 13.2853 8.57527 13.2924 8.59674C13.3085 8.64493 13.3619 8.6695 13.409 8.65057L16.0836 7.57599Z" fill="white" fill-opacity="0.7"/>
<path d="M8.22815 4.24077C8.25152 4.24395 8.27736 4.24748 8.30553 4.25132C8.33352 4.25619 8.36379 4.26147 8.39613 4.26711C8.42841 4.27265 8.46277 4.27854 8.49897 4.28477C8.53043 4.28999 8.56301 4.29758 8.59689 4.30467L9.57042 2.31331C9.52216 2.30578 9.47429 2.2983 9.42739 2.29098C9.39525 2.2862 9.36362 2.28071 9.3321 2.27677C9.30059 2.27296 9.26945 2.26918 9.23873 2.26546C9.17737 2.25818 9.11769 2.25107 9.05998 2.24422C9.00211 2.23926 8.94619 2.23447 8.89252 2.22987C8.83884 2.22575 8.78764 2.22033 8.73863 2.218C8.68971 2.21561 8.64329 2.21331 8.59968 2.21117C8.55611 2.20911 8.51534 2.20719 8.47768 2.20541C8.43997 2.2048 8.40533 2.20424 8.37403 2.20374C8.33001 2.2032 8.29265 2.20276 8.26269 2.2024C8.21518 2.20183 8.17587 2.23896 8.17359 2.28641L8.08482 4.13989C8.08264 4.18556 8.11558 4.22532 8.16087 4.23153C8.18016 4.23418 8.20265 4.23728 8.22815 4.24077Z" fill="white" fill-opacity="0.7"/>
<path d="M10.8447 5.2613C10.8709 5.28032 10.8957 5.29836 10.919 5.31534C10.9423 5.33206 10.9641 5.3477 10.9843 5.36217C10.9931 5.36819 11.0075 5.37914 11.0193 5.3879C11.0315 5.39698 11.0431 5.40562 11.054 5.41382C11.078 5.43169 11.0991 5.44748 11.1172 5.46099C11.158 5.49137 11.2158 5.4811 11.2437 5.43862L12.5147 3.50249C12.5426 3.46001 12.5291 3.40288 12.485 3.37759C12.4654 3.36635 12.4425 3.35322 12.4166 3.33835C12.4047 3.33151 12.3921 3.32434 12.379 3.31678C12.3646 3.30868 12.3497 3.3002 12.334 3.29136C12.2979 3.27142 12.2588 3.24989 12.217 3.22686C12.1752 3.20408 12.1307 3.17985 12.0838 3.15428C12.0391 3.1319 11.9922 3.10837 11.9431 3.0838C11.8939 3.05978 11.8437 3.03307 11.7899 3.00882C11.7363 2.98427 11.6809 2.95887 11.6239 2.93277C11.5674 2.90607 11.5077 2.88182 11.4471 2.85637C11.3863 2.83146 11.325 2.80423 11.2611 2.7802C11.2449 2.77406 11.2285 2.76785 11.2121 2.76166L10.6638 5.1416C10.6941 5.16064 10.7227 5.18083 10.7508 5.19905C10.7836 5.22075 10.8149 5.24153 10.8447 5.2613Z" fill="white" fill-opacity="0.7"/>
<path d="M6.52148 4.23103C6.54603 4.22779 6.57013 4.22378 6.5942 4.22124C6.61827 4.2188 6.64205 4.21639 6.6655 4.21399C6.71229 4.20914 6.7578 4.20442 6.80184 4.19984C6.846 4.19688 6.88868 4.19402 6.92964 4.19126C6.95007 4.18987 6.97008 4.18851 6.98964 4.18717C7.00915 4.18586 7.02869 4.1842 7.04544 4.18418C7.07995 4.18327 7.11272 4.18242 7.14348 4.18162C7.17415 4.18065 7.20282 4.17974 7.22938 4.1789C7.2621 4.17868 7.29217 4.17849 7.3193 4.17831C7.34918 4.17815 7.37559 4.178 7.39818 4.17788C7.449 4.17761 7.48894 4.13457 7.48561 4.08386L7.37119 2.33787C7.36784 2.28716 7.32264 2.24971 7.27223 2.25608C7.24981 2.25891 7.22363 2.26222 7.19398 2.26596C7.16649 2.26945 7.13605 2.27333 7.10291 2.27755C7.06376 2.28337 7.02142 2.28963 6.97616 2.29634C6.93105 2.30321 6.88302 2.31053 6.8324 2.31824C6.80649 2.32189 6.78263 2.32674 6.7576 2.33147C6.73264 2.33623 6.7071 2.34111 6.68103 2.34609C6.62897 2.35614 6.57477 2.36663 6.51862 2.37748C6.46291 2.39016 6.40529 2.4033 6.34607 2.41677C6.31653 2.42355 6.28658 2.43044 6.25626 2.43742C6.22598 2.44451 6.19562 2.45317 6.16482 2.46113C6.10335 2.47751 6.04059 2.49424 5.97675 2.51124C5.91354 2.5303 5.84928 2.54966 5.78425 2.56927C5.75183 2.57931 5.71906 2.58878 5.68649 2.5995C5.65407 2.61057 5.62141 2.62168 5.58866 2.63287C5.55597 2.64407 5.52315 2.65531 5.49024 2.6666C5.45732 2.6778 5.42434 2.68906 5.3918 2.70189C5.32658 2.72678 5.2611 2.75178 5.19562 2.77678C5.13043 2.8023 5.06632 2.83057 5.00206 2.85732C4.97003 2.87098 4.9379 2.88415 4.90625 2.89816C4.87481 2.91267 4.84347 2.92713 4.81225 2.94155C4.78109 2.95598 4.75005 2.97036 4.71918 2.98466C4.68831 2.99894 4.65757 3.01301 4.62768 3.02852C4.5677 3.0588 4.50845 3.08872 4.45018 3.11814C4.3919 3.14736 4.33636 3.17961 4.28119 3.20929C4.22627 3.23953 4.17226 3.26838 4.12132 3.29946C4.07008 3.32985 4.02025 3.35943 3.97204 3.38802C3.92369 3.41623 3.87884 3.44668 3.83489 3.47421C3.79125 3.50218 3.74943 3.529 3.70965 3.5545C3.67073 3.58122 3.63379 3.60656 3.59909 3.63037C3.56449 3.65421 3.5321 3.67651 3.50214 3.69714C3.47222 3.71777 3.44576 3.73822 3.42136 3.7559C3.38831 3.78031 3.36009 3.80114 3.33726 3.818C3.29913 3.84615 3.29018 3.89931 3.31684 3.93852L4.04185 5.00443C4.06765 5.04237 4.1181 5.05427 4.15805 5.03171C4.17647 5.02133 4.19823 5.00903 4.22305 4.99504C4.24468 4.98307 4.26809 4.96893 4.29452 4.95517C4.32093 4.94139 4.34949 4.92654 4.38 4.91065C4.41042 4.89474 4.44281 4.87781 4.47694 4.85997C4.51165 4.84333 4.54814 4.82583 4.58622 4.80758C4.62448 4.78975 4.66329 4.76933 4.70515 4.75153C4.74668 4.73329 4.78963 4.71445 4.83379 4.69507C4.87751 4.67494 4.92382 4.65735 4.97067 4.63856C5.01777 4.62031 5.06494 4.59966 5.11435 4.58221C5.16354 4.56448 5.21357 4.54646 5.2642 4.5282C5.2893 4.51867 5.31514 4.5106 5.34104 4.50233C5.36688 4.49401 5.39286 4.48565 5.41893 4.47726C5.44495 4.46885 5.47108 4.4604 5.49728 4.45192C5.52362 4.44392 5.55033 4.43676 5.57687 4.4291C5.63018 4.41436 5.68313 4.398 5.73681 4.38429C5.79053 4.371 5.84425 4.3577 5.89776 4.34448C5.92431 4.33741 5.95126 4.33188 5.97809 4.32635C6.00486 4.32071 6.03156 4.3151 6.05817 4.30949C6.08469 4.30386 6.11112 4.29826 6.13742 4.29267C6.16378 4.28741 6.19028 4.28335 6.21643 4.27864C6.26872 4.26957 6.32036 4.26059 6.37118 4.25178C6.42218 4.24475 6.47234 4.23781 6.52148 4.23103Z" fill="white" fill-opacity="0.7"/>
<path d="M1.57788 5.6092C1.55888 5.63608 1.5398 5.66308 1.52064 5.69019C1.50153 5.71728 1.48234 5.74448 1.46309 5.77177C1.44392 5.7991 1.42599 5.82744 1.40735 5.85532C1.37059 5.91146 1.33298 5.96716 1.29697 6.02393C1.26181 6.08117 1.22665 6.13842 1.19163 6.19545L1.1655 6.23814L1.1407 6.28154C1.12422 6.31039 1.10779 6.33918 1.09142 6.36783C1.02449 6.48151 0.966351 6.59772 0.907263 6.7081C0.879759 6.76438 0.852702 6.81972 0.826218 6.87391C0.813083 6.90097 0.800073 6.92777 0.787243 6.95422C0.775164 6.98103 0.763246 7.00753 0.751472 7.03369C0.728029 7.08591 0.705232 7.13673 0.683167 7.18587C0.662589 7.23563 0.64269 7.2837 0.623596 7.32983C0.604878 7.37611 0.585964 7.4199 0.56984 7.4624C0.553932 7.50493 0.538829 7.5453 0.524621 7.58322C0.510484 7.62111 0.49726 7.65656 0.485038 7.68934C0.473746 7.72244 0.463385 7.75285 0.454008 7.78032C0.44184 7.81643 0.431389 7.84742 0.422853 7.8728C0.407732 7.91764 0.430727 7.9663 0.474927 7.98324L1.14974 8.24195C1.19268 8.25841 1.24105 8.23919 1.2609 8.19769C1.27074 8.17715 1.2825 8.15254 1.29601 8.12429C1.30721 8.10101 1.31959 8.07522 1.3331 8.04714C1.34745 8.01946 1.36297 7.98958 1.37956 7.9576C1.39609 7.92573 1.41366 7.89175 1.4322 7.85596C1.45089 7.82027 1.47239 7.78368 1.49374 7.74503C1.51536 7.70659 1.53789 7.66652 1.56121 7.62504C1.58578 7.58437 1.61117 7.54228 1.63729 7.49901C1.6503 7.47741 1.66349 7.45553 1.67684 7.43337C1.69089 7.41163 1.70512 7.38966 1.71948 7.36738C1.74822 7.323 1.77759 7.27769 1.80745 7.23155C1.87091 7.14172 1.93297 7.04711 2.0031 6.95587C2.02022 6.9328 2.03742 6.90966 2.05467 6.88645L2.08053 6.85161L2.10762 6.81754C2.1437 6.77211 2.17991 6.72653 2.21613 6.68095C2.25301 6.63593 2.29129 6.59207 2.32849 6.54783C2.34736 6.52587 2.36547 6.50347 2.38477 6.48212C2.4041 6.46081 2.42335 6.43955 2.44254 6.41838C2.46168 6.39723 2.48074 6.37617 2.49971 6.35519C2.5185 6.33411 2.53747 6.31341 2.55717 6.29356C2.59593 6.25343 2.63423 6.21377 2.67189 6.17474C2.70949 6.13579 2.74873 6.09964 2.78578 6.0631C2.8231 6.02683 2.85922 5.99104 2.8964 5.95823C2.93298 5.92495 2.96855 5.89258 3.00298 5.86124C3.03712 5.82973 3.07231 5.8016 3.1048 5.77336C3.13751 5.7455 3.16886 5.7188 3.19868 5.69341C3.22795 5.67024 3.25573 5.64826 3.28182 5.62758C3.30776 5.60692 3.33205 5.58758 3.3545 5.56969C3.36481 5.56117 3.37877 5.55097 3.39056 5.542C3.40266 5.53286 3.4142 5.52416 3.42515 5.51591C3.44901 5.49789 3.47007 5.482 3.48811 5.4684C3.52867 5.43778 3.53495 5.37941 3.50196 5.34076L2.73365 4.44067C2.70065 4.40202 2.64201 4.39906 2.60541 4.43432C2.58915 4.44999 2.57013 4.4683 2.54862 4.48904C2.53874 4.49854 2.52832 4.50858 2.51741 4.51908C2.5063 4.52987 2.49572 4.5397 2.48194 4.55378C2.4556 4.58035 2.42713 4.60911 2.39669 4.63982C2.36641 4.67054 2.33418 4.70324 2.3002 4.7377C2.26862 4.77192 2.23541 4.80789 2.20076 4.84541C2.16655 4.88322 2.12965 4.92132 2.09395 4.96309C2.05811 5.00464 2.02106 5.04761 1.98297 5.09175C1.9444 5.13538 1.90709 5.18225 1.86871 5.22979C1.83061 5.27759 1.79045 5.32528 1.75214 5.37581C1.71394 5.42635 1.67511 5.47772 1.63581 5.52976C1.61584 5.55555 1.59675 5.58218 1.57788 5.6092Z" fill="white" fill-opacity="0.7"/>
<path d="M0.181721 8.76491C0.177229 8.78703 0.171968 8.81294 0.166009 8.84222C0.160551 8.8691 0.154503 8.89887 0.147918 8.93128C0.141458 8.96442 0.135141 9.00356 0.12809 9.0435C0.121147 9.08383 0.113774 9.12674 0.106008 9.17198C0.10225 9.19453 0.0979556 9.21783 0.0943945 9.24132C0.0912272 9.26468 0.0880061 9.28855 0.0846956 9.3129C0.0720977 9.41048 0.0555094 9.51547 0.0459536 9.62764C0.0404062 9.68352 0.0347157 9.74091 0.0288999 9.79959C0.0241042 9.85834 0.020901 9.9185 0.0167673 9.97948C0.00710419 10.1014 0.00533262 10.2278 0.00130631 10.3556L0 10.4037L0.000232631 10.452C0.000411578 10.4842 0.000590525 10.5165 0.000769472 10.5489C0.000966314 10.5812 0.00116316 10.6136 0.0013421 10.646L0.00164631 10.6946L0.00350736 10.7433C0.00613788 10.808 0.0087684 10.8728 0.0113989 10.9372L0.0133852 10.9855L0.0139937 11.0011L0.0148526 11.0127L0.0165705 11.036C0.018861 11.067 0.0211336 11.0979 0.0234063 11.1287C0.0256789 11.1595 0.0279515 11.1901 0.0301884 11.2206C0.0332841 11.2524 0.0363441 11.2841 0.039422 11.3156C0.0425178 11.3471 0.0455957 11.3783 0.0486557 11.4094C0.0501946 11.4249 0.0517336 11.4403 0.0532725 11.4557C0.0551873 11.4709 0.057102 11.4859 0.0589988 11.501C0.066622 11.5609 0.0741198 11.6199 0.0814567 11.6776C0.0903145 11.7351 0.0989756 11.7913 0.107386 11.846C0.11526 11.9007 0.125406 11.9537 0.134729 12.0048C0.135499 12.0089 0.136268 12.013 0.13702 12.017C0.144804 12.0589 0.181202 12.0892 0.223737 12.0892H0.461576C0.512361 12.0892 0.55266 12.0464 0.549671 11.9957C0.548866 11.9822 0.548043 11.9685 0.54713 11.9547C0.54416 11.9054 0.540581 11.8546 0.539436 11.8021C0.537718 11.7497 0.535964 11.6958 0.534157 11.6408C0.533817 11.5859 0.533477 11.5297 0.533137 11.4726C0.533047 11.4583 0.532958 11.444 0.532868 11.4296C0.533173 11.4155 0.533495 11.4012 0.533817 11.3869C0.534443 11.3584 0.535069 11.3297 0.535714 11.3008C0.53634 11.272 0.536984 11.2429 0.537628 11.2138C0.53906 11.1832 0.540474 11.1525 0.541923 11.1217C0.543355 11.0908 0.544804 11.0599 0.546236 11.0288L0.547327 11.0055L0.547864 10.9938L0.547936 10.9924C0.547936 10.9887 0.548007 10.9958 0.548043 10.9946L0.548258 10.9918L0.548705 10.9861L0.55232 10.941C0.557116 10.8808 0.561929 10.8204 0.566761 10.7599L0.570447 10.7147L0.575655 10.6696C0.579126 10.6396 0.58258 10.6096 0.586033 10.5797C0.589469 10.5497 0.592905 10.5199 0.596323 10.4901L0.601423 10.4456L0.608026 10.4014C0.626136 10.2838 0.641525 10.1682 0.664072 10.0575C0.674648 10.002 0.684114 9.9474 0.694976 9.89427C0.706805 9.84135 0.718365 9.78958 0.729621 9.73919C0.75045 9.63825 0.777453 9.54441 0.799428 9.45742C0.805065 9.43571 0.810576 9.41444 0.815962 9.39368C0.821653 9.37323 0.827791 9.35386 0.833446 9.33468C0.844845 9.29651 0.855671 9.26031 0.865835 9.22626C0.876232 9.19193 0.884768 9.16125 0.894717 9.13045C0.90515 9.09903 0.914705 9.07023 0.923366 9.0442C0.932779 9.01581 0.9411 8.99076 0.948222 8.96929C0.964238 8.9211 0.936269 8.86943 0.887165 8.85635L0.290932 8.69736C0.241811 8.68424 0.191849 8.71511 0.181721 8.76491Z" fill="white" fill-opacity="0.7"/>
<path d="M6.93091 11.8553C7.12489 11.9501 7.33037 11.9951 7.53267 11.9951C8.04049 11.9951 8.52852 11.7122 8.76657 11.2252C8.81242 11.1315 8.84791 11.028 8.87099 10.9305L10.2592 4.90509L10.7879 2.6104L11.1154 1.1889C11.1535 1.02347 11.0219 0.910767 10.8899 0.910767C10.8126 0.910767 10.7352 0.949401 10.6915 1.03868L10.025 2.40195L9.04181 4.41306L6.30078 10.0197C5.96788 10.7006 6.25001 11.5224 6.93091 11.8553ZM7.58357 9.91492C7.95505 9.91492 8.2562 10.2161 8.2562 10.5875C8.2562 10.959 7.95505 11.2602 7.58357 11.2602C7.21209 11.2602 6.91094 10.959 6.91094 10.5875C6.91094 10.216 7.21209 9.91492 7.58357 9.91492Z" fill="white"/>
</svg>
