<svg width="22" height="24" viewBox="0 0 22 24" fill="none" xmlns="http://www.w3.org/2000/svg">
<path fill-rule="evenodd" clip-rule="evenodd" d="M11.8593 0.594413L11.7938 0.513694C11.4477 0.137006 10.8278 0.16389 10.5207 0.594367L4.79361 8.62218L4.65928 8.8164C2.17065 12.5308 3.29784 17.5946 7.17281 19.8975C8.16599 20.4873 9.25722 20.8404 10.3678 20.9568L10.3684 23.1802L10.3739 23.2758C10.4214 23.6835 10.7686 24 11.1899 24C11.6437 24 12.0115 23.6329 12.0115 23.1802L12.0114 20.9568C13.1219 20.8404 14.213 20.4873 15.206 19.8976L15.4072 19.7739L15.604 19.6444C19.2307 17.1819 20.1469 12.2118 17.5854 8.6221L11.8593 0.594413ZM21.6616 17.6569C21.7527 17.2133 21.4663 16.78 21.0218 16.6891C20.5774 16.5981 20.1431 16.8839 20.052 17.3275C19.9247 17.9465 19.6293 18.4851 19.2113 18.9477C19.0071 19.1736 18.7875 19.3659 18.5694 19.5231L18.437 19.6146L18.2337 19.7383C17.8948 19.9709 17.777 20.4252 17.9741 20.7968C18.1864 21.197 18.6836 21.3496 19.0846 21.1378C19.4432 20.9483 19.9388 20.591 20.4315 20.0457C21.0348 19.3781 21.4714 18.5824 21.6616 17.6569ZM11.19 7.39839C10.7687 7.39839 10.4214 7.71488 10.3739 8.12262L10.3684 8.21823L10.3681 11.3246L9.12085 10.0516L9.04421 9.98251C8.7247 9.72891 8.25846 9.74653 7.95906 10.0388C7.65966 10.3311 7.63175 10.7958 7.87879 11.1202L7.94627 11.1981L10.3082 13.6076L10.3681 13.6619L10.3684 17.4414L10.3739 17.537C10.4214 17.9447 10.7687 18.2612 11.19 18.2612C11.5789 18.2612 11.9047 17.9915 11.9898 17.6293L12.006 17.537L12.0104 17.4561L14.7834 14.4809L14.8489 14.4012C15.0876 14.0707 15.0479 13.6068 14.7412 13.3222C14.4344 13.0376 13.9679 13.0318 13.6549 13.2934L13.5801 13.3644L12.0112 15.0474L12.0115 8.21823L12.006 8.12262C11.9585 7.71488 11.6113 7.39839 11.19 7.39839ZM3.50764 7.20212C3.76509 6.88594 3.75231 6.42052 3.46257 6.11872C3.14869 5.79176 2.62863 5.78063 2.30098 6.09385C1.98552 6.39544 1.54537 6.94071 1.11293 7.72105C0.762138 8.35406 0.476043 9.0505 0.277044 9.80817C0.162008 10.2462 0.424558 10.6943 0.863466 10.8091C1.30237 10.9239 1.75143 10.6619 1.86647 10.2239C2.02964 9.60262 2.264 9.03211 2.55082 8.51454C2.75393 8.14803 2.97049 7.83074 3.18492 7.56511L3.31538 7.40931L3.50764 7.20212Z"/>
</svg>
